<?xml version="1.0" standalone="no"?>
<!DOCTYPE svg PUBLIC "-//W3C//DTD SVG 20010904//EN"
 "http://www.w3.org/TR/2001/REC-SVG-20010904/DTD/svg10.dtd">
<svg version="1.0" xmlns="http://www.w3.org/2000/svg"
 width="752.000000pt" height="752.000000pt" viewBox="0 0 752.000000 752.000000"
 preserveAspectRatio="xMidYMid meet">
<metadata>
Created by potrace 1.14, written by Peter Selinger 2001-2017
</metadata>
<g transform="translate(0.000000,752.000000) scale(0.100000,-0.100000)"
fill="#000000" stroke="none">
<path d="M5076 7123 c-1 -1 -987 -4 -2191 -8 -1205 -3 -2217 -8 -2250 -11 -86
-8 -199 -48 -280 -100 -83 -52 -104 -70 -171 -149 -58 -69 -85 -113 -119 -198
-60 -145 -57 -2 -50 -2457 8 -2982 10 -3164 24 -3225 58 -247 219 -440 441
-528 36 -14 83 -29 105 -33 22 -3 49 -8 60 -10 24 -5 395 -5 2870 2 3660 10
3408 6 3541 55 178 67 331 218 406 402 59 145 56 23 51 2222 -5 2566 -9 3406
-16 3425 -3 8 -8 29 -11 45 -7 50 -36 126 -73 195 -99 182 -253 303 -463 362
-35 9 -256 12 -958 13 -503 0 -915 -1 -916 -2z m1851 -206 c152 -46 261 -137
329 -272 60 -121 62 -150 64 -713 0 -279 3 -1056 5 -1727 7 -2342 6 -3119 -6
-3176 -16 -77 -70 -185 -123 -245 -73 -83 -187 -149 -292 -169 -16 -3 -726 -7
-1579 -10 -4805 -15 -4649 -15 -4711 1 -194 50 -328 184 -383 384 -19 68 -20
105 -21 629 -1 306 -3 1051 -5 1656 -10 2987 -9 3168 5 3225 46 189 168 327
348 392 71 26 -45 25 3267 33 1386 4 2521 8 2522 8 1 1 120 2 265 1 208 -1
274 -4 315 -17z"/>
<path d="M2789 6472 l-567 -2 -42 -98 c-24 -53 -56 -126 -73 -162 -55 -122
-77 -172 -77 -180 0 -4 14 -6 30 -5 17 1 30 -1 30 -5 0 -7 -64 -156 -110 -257
-23 -48 -149 -334 -225 -508 -53 -121 -85 -195 -110 -250 -7 -16 -32 -73 -55
-125 -23 -52 -50 -113 -60 -135 -10 -22 -46 -104 -80 -182 -64 -145 -77 -160
-123 -144 -14 5 -15 10 -4 31 7 14 35 75 61 135 77 174 135 305 167 373 16 35
29 65 29 67 0 3 14 35 31 72 17 38 48 106 69 153 36 81 52 117 101 228 62 138
232 519 237 531 4 11 -5 12 -49 6 -30 -5 -61 -9 -69 -10 -19 -2 -99 -16 -125
-22 -11 -2 -31 -6 -45 -9 -137 -26 -481 -130 -602 -183 l-47 -20 4 -1243 c2
-684 4 -1267 4 -1297 1 -46 3 -53 19 -48 9 3 84 28 165 56 82 28 158 53 170
55 12 2 42 9 67 16 81 22 253 56 325 65 28 3 59 8 71 10 139 30 711 27 908 -5
33 -5 81 -12 106 -16 63 -9 78 -11 135 -23 28 -6 61 -13 75 -15 107 -22 386
-98 478 -130 l42 -15 0 450 c0 366 -2 449 -13 442 -44 -27 -127 -97 -127 -107
0 -7 -14 -25 -32 -42 -17 -16 -29 -24 -26 -19 44 86 384 773 386 780 16 42
-47 -73 -170 -315 -80 -157 -159 -310 -175 -340 -17 -30 -54 -100 -83 -155
-29 -55 -61 -113 -70 -130 -9 -16 -41 -74 -71 -129 -51 -94 -81 -127 -174
-196 -24 -19 6 35 110 195 122 188 362 602 455 785 29 58 74 146 100 195 26
50 75 144 110 210 76 146 111 211 247 465 111 205 134 250 130 250 -4 0 -56
-88 -140 -240 -14 -25 -48 -85 -76 -133 -28 -49 -51 -91 -51 -93 0 -2 -10 -21
-23 -42 -13 -20 -40 -66 -59 -102 -166 -306 -237 -437 -308 -575 -181 -351
-209 -395 -204 -321 1 17 3 36 3 43 1 7 7 10 14 8 9 -4 12 28 11 142 -1 111 3
166 16 221 9 40 20 76 24 79 17 17 44 -61 53 -150 3 -33 10 -54 15 -49 12 12
12 119 0 167 -29 111 -27 117 50 272 48 96 74 140 79 131 5 -7 9 -60 9 -118 0
-72 3 -100 10 -90 5 8 10 74 9 145 0 118 -1 128 -14 105 -13 -22 -14 29 -15
417 l0 442 -102 39 c-251 96 -551 172 -778 197 -30 3 -80 9 -110 13 -30 4 -76
7 -102 7 l-48 0 -61 145 c-85 200 -81 187 -61 191 9 2 310 4 667 4 l650 0 5
-673 5 -673 45 88 45 88 0 585 0 585 355 2 c195 2 493 4 663 5 216 2 307 0
307 -8 0 -6 -27 -76 -60 -155 -33 -79 -61 -151 -63 -159 -1 -10 7 -15 28 -15
35 0 36 1 117 203 49 122 55 132 79 132 24 0 32 -13 99 -165 40 -91 77 -168
82 -171 5 -3 21 -8 36 -10 15 -3 32 -10 38 -17 6 -7 53 -106 104 -222 51 -115
106 -237 121 -270 15 -33 39 -87 54 -120 15 -33 35 -78 45 -100 10 -22 33 -74
52 -115 79 -169 338 -748 338 -754 0 -3 -16 -6 -35 -6 -41 0 -20 -38 -188 340
-58 129 -184 413 -282 630 -97 217 -199 447 -227 510 -28 63 -55 119 -58 123
-4 5 -83 10 -175 12 l-166 4 -15 -37 c-8 -20 -19 -46 -24 -57 -12 -27 -445
-1069 -505 -1215 -25 -63 -54 -133 -64 -155 -10 -22 -28 -65 -41 -97 -23 -55
-51 -76 -79 -59 -8 5 103 294 189 489 21 47 35 82 241 577 205 493 232 564
213 553 -5 -3 -47 -9 -94 -12 -203 -16 -500 -76 -715 -144 -120 -39 -288 -102
-299 -113 -7 -7 -17 -469 -10 -469 1 0 33 55 72 123 107 185 101 182 95 42 -5
-122 0 -150 11 -60 14 105 38 229 48 249 49 94 207 147 308 104 44 -19 97 -72
117 -118 18 -44 14 -204 -7 -237 -8 -12 -59 -48 -114 -82 -56 -33 -110 -66
-121 -75 -35 -27 3 -17 75 19 75 38 106 44 96 20 -3 -8 -47 -80 -97 -159 l-92
-145 -136 -70 c-75 -39 -129 -71 -121 -71 8 0 29 7 45 16 116 62 165 84 185
84 17 0 20 -3 13 -12 -6 -7 -41 -71 -78 -143 -37 -71 -72 -136 -78 -143 -5 -6
-49 -31 -98 -54 -49 -23 -87 -43 -85 -45 2 -2 15 1 30 7 43 16 76 20 76 8 0
-23 -111 -217 -128 -222 -16 -5 -17 -44 -14 -585 l2 -580 73 25 c215 74 558
154 767 180 30 3 64 8 75 10 99 19 579 26 730 11 295 -30 578 -93 833 -186 54
-19 82 -26 83 -18 1 14 1 304 -1 1599 l-1 987 -42 14 c-23 9 -80 29 -127 47
-95 35 -128 45 -315 95 -121 32 -292 65 -411 80 l-51 6 -32 72 c-18 40 -41 90
-51 112 -17 36 -70 154 -104 230 l-13 30 -964 0 c-530 0 -1219 -1 -1530 -3z
m-421 -267 c64 -152 69 -160 97 -163 32 -4 65 -28 65 -46 0 -10 135 -337 170
-411 5 -11 57 -135 115 -275 59 -140 113 -268 120 -285 12 -26 150 -354 225
-535 l27 -66 -33 -1 c-32 -1 -34 2 -67 81 -19 44 -96 227 -172 406 -75 179
-143 339 -150 355 -7 17 -25 59 -40 95 -15 36 -33 79 -41 95 -7 17 -31 75 -54
130 -23 55 -47 114 -55 130 -7 17 -36 86 -64 155 -29 69 -57 136 -64 149 l-12
24 -168 -6 c-92 -3 -167 -2 -165 3 2 4 35 80 73 169 68 157 71 161 98 159 26
-3 33 -13 95 -163z m3921 -1886 c-5 -11 -13 -19 -17 -19 -4 0 -20 -13 -37 -28
-141 -132 -422 -245 -710 -287 -72 -11 -368 -13 -440 -4 -338 43 -568 133
-765 298 l-54 46 154 5 c85 3 543 6 1017 6 839 1 862 1 852 -17z m-3055 -10
c-35 -39 -159 -127 -244 -172 -120 -64 -299 -125 -420 -142 -24 -4 -47 -8 -50
-10 -27 -17 -355 -25 -495 -12 -163 15 -354 66 -504 134 -112 51 -301 183
-301 211 0 4 457 8 1016 9 l1016 2 -18 -20z"/>
<path d="M6549 5533 c-1 -5 0 -569 1 -1255 1 -687 -1 -1248 -4 -1248 -3 0 -29
9 -58 19 -57 21 -273 88 -310 95 -13 3 -59 14 -103 25 -83 20 -215 47 -275 55
-19 3 -53 8 -75 11 -22 3 -49 7 -60 10 -127 27 -681 27 -875 0 -14 -2 -47 -6
-73 -10 -27 -4 -59 -8 -70 -11 -47 -9 -144 -26 -172 -31 -100 -16 -397 -100
-547 -155 l-58 -20 0 -110 c0 -101 1 -110 18 -103 98 43 456 154 578 180 148
31 244 48 339 60 28 4 61 8 74 10 153 25 632 25 821 0 14 -1 50 -6 80 -10 228
-29 510 -96 745 -177 66 -22 126 -41 134 -42 12 -1 13 173 11 1149 -1 633 -3
1231 -3 1330 l-2 180 -50 27 c-53 29 -64 33 -66 21z"/>
<path d="M899 5499 l-56 -30 3 -1007 c2 -554 3 -1153 3 -1332 l1 -326 174 58
c96 31 227 71 292 87 129 33 130 33 284 61 156 28 176 31 355 47 168 15 623 8
724 -12 13 -2 49 -7 80 -11 71 -8 323 -57 421 -83 109 -28 325 -96 399 -126
36 -13 67 -23 69 -20 3 3 6 52 6 109 l1 104 -125 41 c-193 62 -388 114 -510
135 -19 3 -46 8 -60 11 -13 3 -42 7 -65 10 -22 3 -47 8 -55 10 -8 2 -40 6 -70
10 -30 3 -71 7 -90 10 -124 15 -502 22 -600 11 -25 -3 -76 -8 -115 -11 -38 -3
-83 -8 -100 -10 -16 -3 -48 -7 -70 -10 -40 -5 -178 -30 -225 -40 -14 -4 -36
-8 -50 -11 -72 -14 -301 -78 -417 -117 l-133 -44 -1 521 c-1 1199 -5 1985 -9
1990 -3 2 -30 -9 -61 -25z"/>
<path d="M3851 5286 c-8 -9 -13 -78 -15 -197 -2 -156 -1 -177 9 -139 7 25 13
92 14 150 1 58 3 126 5 153 1 26 1 47 0 47 -1 0 -7 -6 -13 -14z"/>
<path d="M3902 4825 c-12 -25 -20 -45 -17 -45 7 0 47 81 43 86 -3 2 -14 -17
-26 -41z"/>
<path d="M3856 4738 c-9 -17 -16 -34 -16 -37 0 -8 26 32 33 52 10 28 0 19 -17
-15z"/>
<path d="M3743 4281 c-59 -29 -69 -45 -20 -29 17 5 44 10 60 11 21 0 27 5 27
24 0 27 -1 27 -67 -6z"/>
<path d="M3788 4229 c-9 -13 -29 -38 -45 -55 l-29 -31 1 -665 c1 -365 5 -669
8 -675 5 -8 23 -9 82 -4 7 1 9 245 7 718 -1 395 -4 722 -5 727 -2 5 -10 -2
-19 -15z"/>
<path d="M6429 2130 c-1 -356 -1 -376 -20 -423 -30 -73 -197 -83 -253 -16 -26
31 -40 69 -45 122 -1 5 -9 6 -18 3 -10 -3 -54 -8 -98 -11 -122 -9 -120 -8
-121 -41 -1 -16 5 -50 12 -75 41 -138 173 -213 374 -212 98 1 114 2 190 23
100 27 178 92 211 178 21 55 22 71 23 425 1 202 -1 368 -4 368 -3 1 -60 2
-127 3 l-123 2 -1 -346z"/>
<path d="M1057 2462 l-207 -2 1 -482 c0 -265 3 -486 5 -492 4 -10 264 -12 902
-6 l63 0 -3 83 -3 82 -352 -1 -353 -1 0 133 0 134 153 1 c83 0 228 1 320 1
l168 1 -3 81 -3 81 -312 1 c-172 0 -315 3 -318 6 -10 10 -10 200 0 206 5 4
159 7 340 8 182 1 332 2 335 3 4 1 5 140 1 161 -1 5 -399 7 -734 2z"/>
<path d="M2014 2461 c-2 -2 -4 -224 -4 -493 l0 -488 120 0 120 0 1 383 c0 210
2 378 4 372 2 -5 58 -178 125 -382 l121 -373 124 0 123 0 11 33 c36 115 213
659 224 692 14 36 15 5 16 -334 1 -205 3 -377 6 -381 3 -4 57 -7 120 -7 l115
0 -2 484 c-1 266 -4 487 -8 492 -7 13 -366 9 -378 -4 -5 -5 -58 -156 -118
-334 -75 -228 -110 -319 -115 -305 -14 36 -66 185 -163 469 -33 94 -61 172
-63 175 -5 6 -373 7 -379 1z"/>
<path d="M3499 2458 c-1 -7 -2 -229 -3 -493 l-1 -481 480 1 c264 0 482 3 485
7 3 4 5 40 5 80 l-1 73 -356 3 -356 2 -1 135 -1 135 319 0 319 0 3 38 c2 20 2
57 -1 83 l-5 45 -305 -1 c-168 -1 -311 1 -317 3 -9 3 -13 34 -13 108 l0 104
118 1 c64 0 219 1 345 2 l227 1 -2 83 -1 83 -469 0 c-367 0 -468 -3 -469 -12z"/>
<path d="M4680 2458 c-2 -62 1 -963 3 -965 4 -3 100 -5 188 -4 l65 1 -1 206
-1 206 87 -5 c140 -9 156 -20 374 -270 l120 -137 154 0 c146 0 153 1 139 18
-8 9 -54 67 -103 127 -111 137 -193 218 -262 257 -29 16 -53 31 -53 32 0 1 14
3 31 4 71 6 185 56 229 101 89 91 87 245 -5 336 -91 91 -156 102 -610 104
-285 2 -355 -1 -355 -11z m705 -178 c23 -11 47 -30 54 -43 18 -33 17 -82 -3
-111 -39 -60 -82 -69 -346 -70 l-155 -1 0 120 c0 116 1 119 23 125 13 3 104 4
204 3 158 -2 186 -5 223 -23z"/>
<path d="M4107 1173 c-1 -1 -733 -3 -1627 -5 l-1625 -4 -1 -85 0 -85 775 2
c3152 9 5046 16 5051 19 3 2 5 39 5 82 l0 78 -1288 0 c-709 0 -1289 -1 -1290
-2z"/>
</g>
</svg>
