<?xml version="1.0" encoding="UTF-8"?>
<!DOCTYPE svg PUBLIC "-//W3C//DTD SVG 1.1//EN" "http://www.w3.org/Graphics/SVG/1.1/DTD/svg11.dtd">
<!-- Creator: CorelDRAW 2019 (64 Bit Sem fins comerciais) -->
<svg xmlns="http://www.w3.org/2000/svg" xml:space="preserve" width="210mm" height="297mm" version="1.1" style="shape-rendering:geometricPrecision; text-rendering:geometricPrecision; image-rendering:optimizeQuality; fill-rule:evenodd; clip-rule:evenodd"
viewBox="0 0 21000 29700"
 xmlns:xlink="http://www.w3.org/1999/xlink"
 xmlns:xodm="http://www.corel.com/coreldraw/odm/2003">
 <defs>
  <style type="text/css">
   <![CDATA[
    .str0 {stroke:#FEFEFE;stroke-width:42.33;stroke-miterlimit:22.9256}
    .str1 {stroke:#FEFEFE;stroke-width:25.4;stroke-miterlimit:22.9256}
    .fil2 {fill:none}
    .fil4 {fill:#FEFEFE}
    .fil0 {fill:#0C344C}
    .fil1 {fill:white}
    .fil3 {fill:#FEFEFE;fill-rule:nonzero}
   ]]>
  </style>
 </defs>
 <g id="Camada_x0020_1">
  <metadata id="CorelCorpID_0Corel-Layer"/>
  <rect class="fil0 str0" x="9750.98" y="14129.23" width="1179.6" height="741.81" rx="42.65" ry="42.65"/>
  <circle class="fil1" cx="10343.03" cy="14796.96" r="40.13"/>
  <line class="fil2 str0" x1="9750.98" y1="14720.8" x2="10918.71" y2= "14722.02" />
  <rect class="fil2 str0" x="11006.22" y="14355.36" width="293.02" height="697.52" rx="90.74" ry="90.74"/>
  <rect class="fil2 str0" transform="matrix(2.72236E-14 -0.619092 1.02791 1.63964E-14 9745.41 15519.1)" width="484.37" height="1153" rx="91.07" ry="91.07"/>
  <path class="fil3" d="M9913.6 15361.42l0 26.86 28.88 0 0 -27.38 -28.91 0c0.02,0.17 0.03,0.35 0.03,0.52z"/>
  <path class="fil3" d="M9872.68 15360.9c0.01,0.17 0.02,0.35 0.02,0.52l0 26.86 27.89 0 0 -26.86c0,-0.17 0.02,-0.35 0.03,-0.52l-27.94 0z"/>
  <path class="fil3" d="M9872.7 15401.29l0 26.87c0,0.17 -0.01,0.34 -0.02,0.51l27.94 0c-0.01,-0.17 -0.03,-0.34 -0.03,-0.51l0 -26.87 -27.89 0z"/>
  <path class="fil3" d="M9913.6 15401.29l0 26.87c0,0.17 -0.01,0.34 -0.03,0.51l28.91 0 0 -27.38 -28.88 0z"/>
  <path class="fil3" d="M9859.7 15388.28l0 -26.86c0,-0.17 0.01,-0.35 0.03,-0.52l-28.9 0 0 27.38 28.87 0z"/>
  <path class="fil3" d="M9859.7 15428.16l0 -26.87 -28.87 0 0 27.38 28.9 0c-0.02,-0.17 -0.03,-0.34 -0.03,-0.51z"/>
  <path class="fil3" d="M9913.6 15279.82l0 26.86 28.88 0 0 -27.38 -28.91 0c0.02,0.17 0.03,0.34 0.03,0.52z"/>
  <path class="fil3" d="M9872.68 15279.3c0.01,0.17 0.02,0.34 0.02,0.52l0 26.86 27.89 0 0 -26.86c0,-0.18 0.02,-0.35 0.03,-0.52l-27.94 0z"/>
  <path class="fil3" d="M9872.7 15319.68l0 26.87c0,0.18 -0.01,0.34 -0.02,0.52l27.94 0c-0.01,-0.18 -0.03,-0.34 -0.03,-0.52l0 -26.87 -27.89 0z"/>
  <path class="fil3" d="M9913.6 15319.68l0 26.87c0,0.18 -0.01,0.34 -0.03,0.52l28.91 0 0 -27.39 -28.88 0z"/>
  <path class="fil3" d="M9859.7 15306.68l0 -26.86c0,-0.18 0.01,-0.35 0.03,-0.52l-28.9 0 0 27.38 28.87 0z"/>
  <path class="fil3" d="M9859.7 15346.55l0 -26.87 -28.87 0 0 27.39 28.9 0c-0.02,-0.18 -0.03,-0.34 -0.03,-0.52z"/>
  <path class="fil3" d="M10037.33 15361.42l0 26.86 28.88 0 0 -27.38 -28.91 0c0.01,0.17 0.03,0.35 0.03,0.52z"/>
  <path class="fil3" d="M9996.4 15360.9c0.02,0.17 0.03,0.35 0.03,0.52l0 26.86 27.89 0 0 -26.86c0,-0.17 0.02,-0.35 0.03,-0.52l-27.95 0z"/>
  <path class="fil3" d="M9983.43 15388.28l0 -26.86c0,-0.17 0.01,-0.35 0.02,-0.52l-28.9 0 0 27.38 28.88 0z"/>
  <path class="fil3" d="M10037.33 15279.82l0 26.86 28.88 0 0 -27.38 -28.91 0c0.01,0.17 0.03,0.34 0.03,0.52z"/>
  <path class="fil3" d="M9996.4 15279.3c0.02,0.17 0.03,0.34 0.03,0.52l0 26.86 27.89 0 0 -26.86c0,-0.18 0.02,-0.35 0.03,-0.52l-27.95 0z"/>
  <path class="fil3" d="M9996.43 15319.68l0 26.87c0,0.18 -0.01,0.34 -0.03,0.52l27.95 0c-0.01,-0.18 -0.03,-0.34 -0.03,-0.52l0 -26.87 -27.89 0z"/>
  <path class="fil3" d="M10037.33 15319.68l0 26.87c0,0.18 -0.02,0.34 -0.03,0.52l28.91 0 0 -27.39 -28.88 0z"/>
  <path class="fil3" d="M9983.43 15306.68l0 -26.86c0,-0.18 0.01,-0.35 0.02,-0.52l-28.9 0 0 27.38 28.88 0z"/>
  <path class="fil3" d="M9983.43 15346.55l0 -26.87 -28.88 0 0 27.39 28.9 0c-0.01,-0.18 -0.02,-0.34 -0.02,-0.52z"/>
  <path class="fil3" d="M10161.05 15361.42l0 26.86 28.88 0 0 -27.38 -28.9 0c0.01,0.17 0.02,0.35 0.02,0.52z"/>
  <path class="fil3" d="M10120.13 15360.9c0.01,0.17 0.03,0.35 0.03,0.52l0 26.86 27.89 0 0 -26.86c0,-0.17 0.01,-0.35 0.03,-0.52l-27.95 0z"/>
  <path class="fil3" d="M10107.16 15388.28l0 -26.86c0,-0.17 0.01,-0.35 0.02,-0.52l-28.9 0 0 27.38 28.88 0z"/>
  <path class="fil3" d="M10161.05 15279.82l0 26.86 28.88 0 0 -27.38 -28.9 0c0.01,0.17 0.02,0.34 0.02,0.52z"/>
  <path class="fil3" d="M10120.13 15279.3c0.01,0.17 0.03,0.34 0.03,0.52l0 26.86 27.89 0 0 -26.86c0,-0.18 0.01,-0.35 0.03,-0.52l-27.95 0z"/>
  <path class="fil3" d="M10120.16 15319.68l0 26.87c0,0.18 -0.02,0.34 -0.03,0.52l27.95 0c-0.02,-0.18 -0.03,-0.34 -0.03,-0.52l0 -26.87 -27.89 0z"/>
  <path class="fil3" d="M10161.05 15319.68l0 26.87c0,0.18 -0.01,0.34 -0.02,0.52l28.9 0 0 -27.39 -28.88 0z"/>
  <path class="fil3" d="M10107.16 15306.68l0 -26.86c0,-0.18 0.01,-0.35 0.02,-0.52l-28.9 0 0 27.38 28.88 0z"/>
  <path class="fil3" d="M10107.16 15346.55l0 -26.87 -28.88 0 0 27.39 28.9 0c-0.01,-0.18 -0.02,-0.34 -0.02,-0.52z"/>
  <path class="fil3" d="M10284.78 15361.42l0 26.86 28.88 0 0 -27.38 -28.91 0c0.02,0.17 0.03,0.35 0.03,0.52z"/>
  <path class="fil3" d="M10243.86 15360.9c0.01,0.17 0.03,0.35 0.03,0.52l0 26.86 27.89 0 0 -26.86c0,-0.17 0.01,-0.35 0.02,-0.52l-27.94 0z"/>
  <path class="fil3" d="M10230.88 15388.28l0 -26.86c0,-0.17 0.02,-0.35 0.03,-0.52l-28.9 0 0 27.38 28.87 0z"/>
  <path class="fil3" d="M10284.78 15279.82l0 26.86 28.88 0 0 -27.38 -28.91 0c0.02,0.17 0.03,0.34 0.03,0.52z"/>
  <path class="fil3" d="M10243.86 15279.3c0.01,0.17 0.03,0.34 0.03,0.52l0 26.86 27.89 0 0 -26.86c0,-0.18 0.01,-0.35 0.02,-0.52l-27.94 0z"/>
  <path class="fil3" d="M10243.89 15319.68l0 26.87c0,0.18 -0.02,0.34 -0.03,0.52l27.94 0c-0.01,-0.18 -0.02,-0.34 -0.02,-0.52l0 -26.87 -27.89 0z"/>
  <path class="fil3" d="M10284.78 15319.68l0 26.87c0,0.18 -0.01,0.34 -0.03,0.52l28.91 0 0 -27.39 -28.88 0z"/>
  <path class="fil3" d="M10230.88 15306.68l0 -26.86c0,-0.18 0.02,-0.35 0.03,-0.52l-28.9 0 0 27.38 28.87 0z"/>
  <path class="fil3" d="M10230.88 15346.55l0 -26.87 -28.87 0 0 27.39 28.9 0c-0.01,-0.18 -0.03,-0.34 -0.03,-0.52z"/>
  <path class="fil3" d="M10408.51 15361.42l0 26.86 28.88 0 0 -27.38 -28.91 0c0.02,0.17 0.03,0.35 0.03,0.52z"/>
  <path class="fil3" d="M10367.59 15360.9c0.01,0.17 0.02,0.35 0.02,0.52l0 26.86 27.89 0 0 -26.86c0,-0.17 0.02,-0.35 0.03,-0.52l-27.94 0z"/>
  <path class="fil3" d="M10354.61 15388.28l0 -26.86c0,-0.17 0.01,-0.35 0.03,-0.52l-28.91 0 0 27.38 28.88 0z"/>
  <path class="fil3" d="M10408.51 15279.82l0 26.86 28.88 0 0 -27.38 -28.91 0c0.02,0.17 0.03,0.34 0.03,0.52z"/>
  <path class="fil3" d="M10367.59 15279.3c0.01,0.17 0.02,0.34 0.02,0.52l0 26.86 27.89 0 0 -26.86c0,-0.18 0.02,-0.35 0.03,-0.52l-27.94 0z"/>
  <path class="fil3" d="M10367.61 15319.68l0 26.87c0,0.18 -0.01,0.34 -0.02,0.52l27.94 0c-0.01,-0.18 -0.03,-0.34 -0.03,-0.52l0 -26.87 -27.89 0z"/>
  <path class="fil3" d="M10408.51 15319.68l0 26.87c0,0.18 -0.01,0.34 -0.03,0.52l28.91 0 0 -27.39 -28.88 0z"/>
  <path class="fil3" d="M10354.61 15306.68l0 -26.86c0,-0.18 0.01,-0.35 0.03,-0.52l-28.91 0 0 27.38 28.88 0z"/>
  <path class="fil3" d="M10354.61 15346.55l0 -26.87 -28.88 0 0 27.39 28.91 0c-0.02,-0.18 -0.03,-0.34 -0.03,-0.52z"/>
  <path class="fil3" d="M10532.24 15361.42l0 26.86 28.88 0 0 -27.38 -28.91 0c0.01,0.17 0.03,0.35 0.03,0.52z"/>
  <path class="fil3" d="M10491.31 15360.9c0.02,0.17 0.03,0.35 0.03,0.52l0 26.86 27.89 0 0 -26.86c0,-0.17 0.02,-0.35 0.03,-0.52l-27.95 0z"/>
  <path class="fil3" d="M10491.34 15401.29l0 26.87c0,0.17 -0.01,0.34 -0.03,0.51l27.95 0c-0.01,-0.17 -0.03,-0.34 -0.03,-0.51l0 -26.87 -27.89 0z"/>
  <path class="fil3" d="M10532.24 15401.29l0 26.87c0,0.17 -0.02,0.34 -0.03,0.51l28.91 0 0 -27.38 -28.88 0z"/>
  <path class="fil3" d="M10478.34 15388.28l0 -26.86c0,-0.17 0.01,-0.35 0.02,-0.52l-28.9 0 0 27.38 28.88 0z"/>
  <path class="fil3" d="M10478.34 15428.16l0 -26.87 -28.88 0 0 27.38 28.9 0c-0.01,-0.17 -0.02,-0.34 -0.02,-0.51z"/>
  <path class="fil3" d="M10532.24 15279.82l0 26.86 28.88 0 0 -27.38 -28.91 0c0.01,0.17 0.03,0.34 0.03,0.52z"/>
  <path class="fil3" d="M10491.31 15279.3c0.02,0.17 0.03,0.34 0.03,0.52l0 26.86 27.89 0 0 -26.86c0,-0.18 0.02,-0.35 0.03,-0.52l-27.95 0z"/>
  <path class="fil3" d="M10491.34 15319.68l0 26.87c0,0.18 -0.01,0.34 -0.03,0.52l27.95 0c-0.01,-0.18 -0.03,-0.34 -0.03,-0.52l0 -26.87 -27.89 0z"/>
  <path class="fil3" d="M10532.24 15319.68l0 26.87c0,0.18 -0.02,0.34 -0.03,0.52l28.91 0 0 -27.39 -28.88 0z"/>
  <path class="fil3" d="M10478.34 15306.68l0 -26.86c0,-0.18 0.01,-0.35 0.02,-0.52l-28.9 0 0 27.38 28.88 0z"/>
  <path class="fil3" d="M10478.34 15346.55l0 -26.87 -28.88 0 0 27.39 28.9 0c-0.01,-0.18 -0.02,-0.34 -0.02,-0.52z"/>
  <path class="fil3" d="M10825.57 15361.42l0 26.86 28.88 0 0 -27.38 -28.9 0c0.01,0.17 0.02,0.35 0.02,0.52z"/>
  <path class="fil3" d="M10784.65 15360.9c0.02,0.17 0.03,0.35 0.03,0.52l0 26.86 27.89 0 0 -26.86c0,-0.17 0.01,-0.35 0.03,-0.52l-27.95 0z"/>
  <path class="fil3" d="M10784.68 15401.29l0 26.87c0,0.17 -0.01,0.34 -0.03,0.51l27.95 0c-0.02,-0.17 -0.03,-0.34 -0.03,-0.51l0 -26.87 -27.89 0z"/>
  <path class="fil3" d="M10825.57 15401.29l0 26.87c0,0.17 -0.01,0.34 -0.02,0.51l28.9 0 0 -27.38 -28.88 0z"/>
  <path class="fil3" d="M10771.68 15388.28l0 -26.86c0,-0.17 0.01,-0.35 0.02,-0.52l-28.9 0 0 27.38 28.88 0z"/>
  <path class="fil3" d="M10771.68 15428.16l0 -26.87 -28.88 0 0 27.38 28.9 0c-0.01,-0.17 -0.02,-0.34 -0.02,-0.51z"/>
  <path class="fil3" d="M10825.57 15279.82l0 26.86 28.88 0 0 -27.38 -28.9 0c0.01,0.17 0.02,0.34 0.02,0.52z"/>
  <path class="fil3" d="M10784.65 15279.3c0.02,0.17 0.03,0.34 0.03,0.52l0 26.86 27.89 0 0 -26.86c0,-0.18 0.01,-0.35 0.03,-0.52l-27.95 0z"/>
  <path class="fil3" d="M10784.68 15319.68l0 26.87c0,0.18 -0.01,0.34 -0.03,0.52l27.95 0c-0.02,-0.18 -0.03,-0.34 -0.03,-0.52l0 -26.87 -27.89 0z"/>
  <path class="fil3" d="M10825.57 15319.68l0 26.87c0,0.18 -0.01,0.34 -0.02,0.52l28.9 0 0 -27.39 -28.88 0z"/>
  <path class="fil3" d="M10771.68 15306.68l0 -26.86c0,-0.18 0.01,-0.35 0.02,-0.52l-28.9 0 0 27.38 28.88 0z"/>
  <path class="fil3" d="M10771.68 15346.55l0 -26.87 -28.88 0 0 27.39 28.9 0c-0.01,-0.18 -0.02,-0.34 -0.02,-0.52z"/>
  <path class="fil3" d="M11198.03 14528.44l0 26.86 48.2 0 0 -27.38 -48.24 0c0.02,0.17 0.04,0.35 0.04,0.52z"/>
  <path class="fil3" d="M11129.74 14527.92c0.02,0.17 0.04,0.35 0.04,0.52l0 26.86 46.55 0 0 -26.86c0,-0.17 0.02,-0.35 0.04,-0.52l-46.63 0z"/>
  <path class="fil3" d="M11129.78 14568.31l0 26.87c0,0.17 -0.02,0.34 -0.04,0.51l46.63 0c-0.02,-0.17 -0.04,-0.34 -0.04,-0.51l0 -26.87 -46.55 0z"/>
  <path class="fil3" d="M11198.03 14568.31l0 26.87c0,0.17 -0.02,0.34 -0.04,0.51l48.24 0 0 -27.38 -48.2 0z"/>
  <path class="fil3" d="M11108.08 14555.3l0 -26.86c0,-0.17 0.03,-0.35 0.05,-0.52l-48.24 0 0 27.38 48.19 0z"/>
  <path class="fil3" d="M11108.08 14595.18l0 -26.87 -48.19 0 0 27.38 48.24 0c-0.02,-0.17 -0.05,-0.34 -0.05,-0.51z"/>
  <path class="fil3" d="M11198.03 14446.83l0 26.87 48.2 0 0 -27.38 -48.24 0c0.02,0.17 0.04,0.34 0.04,0.51z"/>
  <path class="fil3" d="M11129.74 14446.32c0.02,0.17 0.04,0.34 0.04,0.51l0 26.87 46.55 0 0 -26.87c0,-0.17 0.02,-0.34 0.04,-0.51l-46.63 0z"/>
  <path class="fil3" d="M11129.78 14486.7l0 26.87c0,0.17 -0.02,0.34 -0.04,0.52l46.63 0c-0.02,-0.18 -0.04,-0.35 -0.04,-0.52l0 -26.87 -46.55 0z"/>
  <path class="fil3" d="M11198.03 14486.7l0 26.87c0,0.17 -0.02,0.34 -0.04,0.52l48.24 0 0 -27.39 -48.2 0z"/>
  <path class="fil3" d="M11108.08 14473.7l0 -26.87c0,-0.17 0.03,-0.34 0.05,-0.51l-48.24 0 0 27.38 48.19 0z"/>
  <path class="fil3" d="M11108.08 14513.57l0 -26.87 -48.19 0 0 27.39 48.24 0c-0.02,-0.18 -0.05,-0.35 -0.05,-0.52z"/>
  <circle class="fil4 str0" cx="11159.47" cy="14920.71" r="40.13"/>
  <circle class="fil4" cx="11159.48" cy="14920.71" r="28.15"/>
  <path class="fil3" d="M10422.52 15428.16l0 -26.87 -467.95 0 0 27.38 468.35 0c-0.2,-0.17 -0.4,-0.34 -0.4,-0.51z"/>
  <polygon class="fil0 str0" points="10530.02,14872.97 10162.22,14871.96 10113.52,15018.05 10557.22,15018.05 "/>
  <path class="fil2 str1" d="M11200.86 15294.29c-1.77,-54.22 27.85,-189.75 -29.76,-181.85 -31.16,4.27 -27.7,25.59 -29.96,64.5 -18.71,50.48 -87.03,23.64 -67.29,-25.24l43.97 -98.82"/>
  <path class="fil2 str1" d="M11178.37 15210.37l38.78 -1.43c35.91,-1.33 66.38,26.97 67.71,62.88 1.02,27.65 -1.25,55.72 -0.32,80.96 1.72,46.58 -34.97,86.09 -81.55,87.81l0 0c-46.58,1.72 -86.09,-34.97 -87.81,-81.55 -1,-26.98 1.35,-52.69 0.31,-80.96 -1.33,-35.92 26.97,-66.38 62.88,-67.71l0 0z"/>
  <line class="fil2 str1" x1="11122.73" y1="15288.42" x2="11284.15" y2= "15289.13" />
 </g>
</svg>
