<?xml version="1.0" encoding="UTF-8"?>
<!DOCTYPE svg PUBLIC "-//W3C//DTD SVG 1.1//EN" "http://www.w3.org/Graphics/SVG/1.1/DTD/svg11.dtd">
<!-- Creator: CorelDRAW 2019 (64 Bit Sem fins comerciais) -->
<svg xmlns="http://www.w3.org/2000/svg" xml:space="preserve" width="18.592mm" height="18.592mm" version="1.1" style="shape-rendering:geometricPrecision; text-rendering:geometricPrecision; image-rendering:optimizeQuality; fill-rule:evenodd; clip-rule:evenodd"
viewBox="0 0 1859.2 1859.2"
 xmlns:xlink="http://www.w3.org/1999/xlink"
 xmlns:xodm="http://www.corel.com/coreldraw/odm/2003">
 <defs>
  <style type="text/css">
   <![CDATA[
    .str1 {stroke:#05344E;stroke-width:8.47;stroke-miterlimit:22.9256}
    .str0 {stroke:#FEFEFE;stroke-width:20;stroke-miterlimit:22.9256}
    .fil0 {fill:none}
    .fil1 {fill:#FEFEFE}
   ]]>
  </style>
 </defs>
 <g id="Camada_x0020_1">
  <metadata id="CorelCorpID_0Corel-Layer"/>
  <rect class="fil0 str0" x="96.26" y="118.49" width="1636.94" height="1648.2" rx="154.57" ry="154.57"/>
 </g>
 <g id="Camada_x0020_1_0">
  <metadata id="CorelCorpID_1Corel-Layer"/>
  <path class="fil1 str1" d="M630.45 581.72l71.75 0.53 0.97 294.67 -58.15 0 0.11 -224.15 -60.04 194.26c-3.16,10.23 -9.85,18.26 -17.6,18.26l-42.64 0 -58.15 -213.21 -3.77 226.06 -58.21 -0.36c1.28,-85.57 -0.21,-171.23 3.83,-256.71 1.12,-23.56 10.67,-38.77 31.02,-38.77l58.14 0 50.4 209.33 47.07 -178.86c3.67,-13.94 15.46,-31.19 35.27,-31.05z"/>
  <rect class="fil1 str1" x="730.31" y="663.71" width="58.15" height="213.21"/>
  <rect class="fil1 str1" x="730.31" y="582.31" width="58.15" height="58.15"/>
  <path class="fil1 str1" d="M869.86 731.04l0 145.88 -58.15 0 0 -213.21 58.15 0 0 16.54c52.96,-43.67 120.18,-24.3 120.18,33.85l0 34.89 -0.01 0 0 127.93 -54.27 0c-9.69,-29.08 26.57,-231.86 -65.9,-145.88z"/>
  <path class="fil1 str1" d="M1077.26 731.04l0 145.88 -58.15 0 0 -300.43 58.15 0 0 103.76c52.95,-43.67 120.17,-24.3 120.17,33.85l0 34.89 0 0 0 127.93 -54.27 0c-9.69,-29.08 26.57,-231.86 -65.9,-145.88z"/>
  <path class="fil1 str1" d="M1403.29 881.19l1.53 -50.79c-14.16,3.61 -23.25,-0.94 -23.25,-11.63l0 -156.03 -31.02 -2.91 -7.75 3.88c-112.42,-27.14 -130.22,54 -132.58,83.81 -5.54,70.06 12.09,117.85 44.5,126.46 32.51,13.34 63.64,10.77 93.04,-11.63 7.96,14.76 22.25,21.74 55.53,18.84zm-91.5 -174.84l19.38 0 0 104.67c-15.56,15.35 -34.63,20.17 -58.15,11.63 -16.78,-27.45 -16.6,-57.2 0,-89.16 8.94,-19.7 22.28,-30.06 38.77,-27.14z"/>
  <path class="fil1 str1" d="M1662.87 1211.32l1.53 -50.79c-14.16,3.62 -23.26,-0.93 -23.26,-11.63l0 -156.03 -31.01 -2.9 -7.75 3.87c-112.42,-27.13 -130.23,54.01 -132.58,83.81 -5.54,70.06 12.08,117.85 44.5,126.46 32.51,13.35 63.64,10.78 93.04,-11.62 7.96,14.75 22.25,21.73 55.53,18.83zm-91.5 -174.84l19.38 0 0 104.67c-15.56,15.35 -34.63,20.17 -58.15,11.63 -16.78,-27.45 -16.6,-57.19 0,-89.16 8.94,-19.7 22.28,-30.05 38.77,-27.14z"/>
  <path class="fil1 str1" d="M307.76 911.81l-135.68 -3.88 0.63 302.76 148.62 -2.33c72.36,-14.47 75.59,-125.99 21.32,-157 54.27,-34.89 35.82,-137.53 -34.89,-139.55zm-19.38 116.29l-58.15 0 0 -65.9 62.03 0c23.26,0 27.31,65.9 -3.88,65.9zm0 120.18l-58.15 0 0 -65.91 62.03 0c23.26,0 27.31,65.91 -3.88,65.91z"/>
  <rect class="fil1 str1" x="389.16" y="993.21" width="58.15" height="213.21"/>
  <rect class="fil1 str1" x="389.16" y="911.81" width="58.15" height="58.15"/>
  <rect class="fil1 str1" x="749.5" y="993.21" width="58.15" height="213.21"/>
  <rect class="fil1 str1" x="749.5" y="911.81" width="58.15" height="58.15"/>
  <rect class="fil1 str1" x="672.16" y="907.93" width="58.15" height="298.49"/>
  <path class="fil1 str1" d="M1662.87 1211.32l1.53 -50.79c-14.16,3.62 -23.26,-0.93 -23.26,-11.63l0 -156.03 -31.01 -2.9 -7.75 3.87c-112.42,-27.13 -130.23,54.01 -132.58,83.81 -5.54,70.06 12.08,117.85 44.5,126.46 32.51,13.35 63.64,10.78 93.04,-11.62 7.96,14.75 22.25,21.73 55.53,18.83zm-91.5 -174.84l19.38 0 0 104.67c-15.56,15.35 -34.63,20.17 -58.15,11.63 -16.78,-27.45 -16.6,-57.19 0,-89.16 8.94,-19.7 22.28,-30.05 38.77,-27.14z"/>
  <path class="fil1 str1" d="M1447.32 993.84c-112.42,-27.13 -130.23,54.01 -132.59,83.81 -5.54,70.06 12.09,117.85 44.51,126.46 32.51,13.35 63.63,10.78 93.04,-11.62l14.57 -13.2 -31.16 -38.14c-15.56,15.35 -34.63,20.17 -58.15,11.63 -16.79,-27.45 -16.6,-57.19 0,-89.16 8.94,-19.7 22.02,-27.14 38.76,-27.14l19.39 0 27.28 7.13 -0.83 -47.1 -14.82 -2.67z"/>
  <path class="fil1 str1" d="M1272.87 993.84c-112.42,-27.13 -130.22,54.01 -132.58,83.81 -5.54,70.06 12.09,117.85 44.51,126.46 57.21,13.94 103.73,-9.32 111.48,-17.07l-7.75 -50.39c-15.56,15.35 -61.91,24.67 -85.44,16.13 -16.78,-27.45 -16.6,-57.19 0,-89.16 8.94,-19.7 22.44,-30.82 38.77,-27.14 14.4,3.26 19.53,22.64 11.82,30.25 -7.71,7.62 -38.12,15.8 -59.29,18.14 -3.99,17.71 -5.06,34.65 0.23,49.9 49.13,0.94 91.79,-14.16 108.75,-55.75 13.4,-32.86 -1.9,-55.8 -15.51,-69.77l-14.99 -15.41z"/>
  <path class="fil1 str1" d="M1452.86 1277.09l0 47.57 -18.96 0 0 -69.53 18.96 0 0 5.4c14.66,-12.09 32.67,-9.36 37.77,3.34l0.99 -3.34c17.27,-14.24 39.19,-7.92 39.19,11.04l0 11.37 0 0 0 41.72 -17.7 0c-3.14,-9.44 8.55,-74.96 -21.06,-47.95l0 6.23 0 0 0 41.72 -0.43 0 -17.27 0 -1.69 0 1.15 -3.9c-0.81,-16.86 6.45,-69.15 -20.95,-43.67z"/>
  <rect class="fil1 str1" x="1289.52" y="1299.46" width="19.38" height="23.26"/>
  <path class="fil1 str1" d="M1358.03 1258.52c-35.04,-8.45 -40.59,16.84 -41.32,26.13 -1.73,21.83 3.76,36.73 13.87,39.42 10.13,4.15 19.83,3.35 29,-3.63l4.54 -4.11 -9.71 -11.89c-4.85,4.79 -10.8,6.29 -18.13,3.62 -5.23,-8.55 -5.17,-17.82 0,-27.79 2.79,-6.14 6.87,-8.45 12.08,-8.45l6.05 0 8.5 2.22 -0.26 -14.69 -4.62 -0.83z"/>
  <path class="fil1 str1" d="M530.66 1058.6l0 145.89 -58.14 0 0 -300.44 58.14 0 0 103.77c52.96,-43.68 120.18,-24.3 120.18,33.85 0,33.6 0,67.19 0,100.79 0,23.26 -15.51,62.03 -52.94,62.03l-67.24 0 0 -46.64c0,-3.1 58.15,11.75 65.11,-26.76 0.78,-61.42 -4.63,-128.72 -65.11,-72.49z"/>
  <path class="fil1 str1" d="M918.74 1214.09c79.44,2.69 90.68,-46.43 95.48,-89.19 8.22,-73.14 -16.43,-127.81 -86.63,-134.5 -79.44,-2.69 -93.42,63.03 -95.48,89.19 -6.12,77.32 8.26,138.1 86.63,134.5zm32.68 -75.16c-23.87,52.6 -93.19,-2.28 -56.51,-73.37 29.22,-52.96 91.25,-10.32 56.51,73.37z"/>
  <path class="fil1 str1" d="M1104.39 1164.31c7.86,5.56 16.92,5.67 34.89,3.88l0 42.64c-20.82,7.87 -43.01,11.24 -69.57,0 -21.9,-9.27 -31.22,-23.26 -31.22,-42.64l0 -120.18 -26.36 0.06 -0.77 -46.57 27.13 0 0 -58.15 50.4 0 0 54.27 54.27 0 0 50.39 -50.4 0 0 95.45c0,14.49 6.05,16.9 11.63,20.85z"/>
  <path class="fil1 str1" d="M1396.64 1324.83c24.59,0.83 28.07,-14.38 29.56,-27.61 2.54,-22.64 -5.09,-39.56 -26.82,-41.63 -24.59,-0.83 -28.91,19.51 -29.55,27.61 -1.89,23.93 2.56,42.74 26.81,41.63zm10.12 -23.27c-7.39,16.28 -28.85,-0.7 -17.49,-22.71 9.04,-16.39 28.24,-3.19 17.49,22.71z"/>
  <path class="fil1 str1" d="M1580.02 1277.09l0 47.57 -18.97 0 0 -97.97 18.97 0 0 33.84c17.26,-14.24 39.18,-7.92 39.18,11.04 0,10.95 0,21.91 0,32.86 0,7.59 -5.05,20.23 -17.26,20.23l-21.92 0 0 -15.21c0,-1.01 18.96,3.83 21.23,-8.72 0.25,-20.03 -1.51,-41.98 -21.23,-23.64z"/>
  <path class="fil1 str1" d="M1645.92 1277.09l0 47.57 -18.96 0 0 -69.53 18.96 0 0 5.4c17.27,-14.24 30.68,-7.71 30.68,11.25l0 5.69 -20.22 0.5c0,0 7.69,-17.76 -10.46,-0.88z"/>
  <rect class="fil1 str1" x="1535.86" y="1299.46" width="19.38" height="23.26"/>
 </g>
</svg>
