<?xml version="1.0" encoding="UTF-8"?>
<!DOCTYPE svg PUBLIC "-//W3C//DTD SVG 1.1//EN" "http://www.w3.org/Graphics/SVG/1.1/DTD/svg11.dtd">
<!-- Creator: CorelDRAW 2019 (64 Bit Sem fins comerciais) -->
<svg xmlns="http://www.w3.org/2000/svg" xml:space="preserve" width="18.592mm" height="18.592mm" version="1.1" style="shape-rendering:geometricPrecision; text-rendering:geometricPrecision; image-rendering:optimizeQuality; fill-rule:evenodd; clip-rule:evenodd"
viewBox="0 0 21000 29700"
 xmlns:xlink="http://www.w3.org/1999/xlink"
 xmlns:xodm="http://www.corel.com/coreldraw/odm/2003">
 <defs>
  <style type="text/css">
   <![CDATA[
    .str1 {stroke:#0C344C;stroke-width:20;stroke-miterlimit:22.9256}
    .str0 {stroke:#FEFEFE;stroke-width:20;stroke-miterlimit:22.9256}
    .fil1 {fill:#0C344C}
    .fil0 {fill:#FEFEFE}
   ]]>
  </style>
 </defs>
 <g id="Camada_x0020_1">
  <metadata id="CorelCorpID_0Corel-Layer"/>
  <g id="_2741851270016">
   <path class="fil0 str0" d="M9900.41 14614.31l229.18 -320.47 726.14 -7.41 244.51 270.45 -11.11 81.51 -1081.8 -3.71c-59.48,44.47 -77.36,88.92 -2.23,133.38l938.43 11.11 -6.3 -133.37 85.21 -3.71 49.28 144.49 2.59 59.28 59.28 0 3.7 55.57 -51.86 14.82 7.4 140.78 55.58 22.23 3.7 94.1 -174.12 0 11.11 143.01 72.98 4.82 6.77 92.44c-373.55,0 -747.09,0 -1120.64,0 -152.85,-42.06 -118.32,-279.35 13.27,-289.45 -76.61,-76.44 -92.45,-167.02 5.31,-252.28 -95.09,-66.67 -106.16,-169.74 -66.38,-257.59z"/>
   <path class="fil1 str1" d="M10054.44 14931.73l942.72 -1.41 5.31 138.09 -948.03 -2.66c-79.67,-49.98 -47.8,-123.87 0,-134.02z"/>
   <path class="fil1 str1" d="M9982.74 15178.69l942.72 -1.41 5.31 138.09 -948.03 -2.66c-79.67,-49.98 -47.8,-123.87 0,-134.02z"/>
   <path class="fil1 str1" d="M10009.3 14647.57l942.72 -1.41 5.31 138.09 -948.03 -2.66c-79.67,-49.98 -47.8,-123.87 0,-134.02z"/>
  </g>
 </g>
</svg>
