<?xml version="1.0" encoding="UTF-8"?>
<!DOCTYPE svg PUBLIC "-//W3C//DTD SVG 1.1//EN" "http://www.w3.org/Graphics/SVG/1.1/DTD/svg11.dtd">
<!-- Creator: CorelDRAW 2019 (64 Bit Sem fins comerciais) -->
<svg xmlns="http://www.w3.org/2000/svg" xml:space="preserve" width="210mm" height="297mm" version="1.1" style="shape-rendering:geometricPrecision; text-rendering:geometricPrecision; image-rendering:optimizeQuality; fill-rule:evenodd; clip-rule:evenodd"
viewBox="0 0 21000 29700"
 xmlns:xlink="http://www.w3.org/1999/xlink"
 xmlns:xodm="http://www.corel.com/coreldraw/odm/2003">
 <defs>
  <style type="text/css">
   <![CDATA[
    .str2 {stroke:#FEFEFE;stroke-width:33.87;stroke-miterlimit:22.9256}
    .str0 {stroke:#0C344C;stroke-width:20;stroke-miterlimit:22.9256}
    .str1 {stroke:#0C344C;stroke-width:25.4;stroke-miterlimit:22.9256}
    .fil0 {fill:#FEFEFE}
    .fil1 {fill:#FEFEFE;fill-rule:nonzero}
   ]]>
  </style>
 </defs>
 <g id="Camada_x0020_1">
  <metadata id="CorelCorpID_0Corel-Layer"/>
  <path class="fil0 str0" d="M10034.77 14455.17l92.37 0 1.44 562.3c0.17,67.03 48.67,77.98 77.97,77.98l388.28 0 286.12 -6.06 0 0c0,94.13 -77.03,171.11 -171.12,171.11l-675.06 0c-94.1,0 -171.11,-76.98 -171.11,-171.11l0 -463.11c0,-94.13 77.01,-171.11 171.11,-171.11z"/>
  <path class="fil0 str1" d="M10206.55 14247.71l776.57 0c42.89,0 77.97,35.09 77.97,77.99l0 691.77c0,42.9 -35.08,77.98 -77.97,77.98l-127.7 0 120.9 211.94 -381.49 -211.94 -388.28 0c-42.89,0 -77.97,-35.08 -77.97,-77.98l0 -691.77c0,-42.9 35.08,-77.99 77.97,-77.99zm91.59 376.99l593.39 0c23.34,0 42.41,19.07 42.41,42.39l0 0.02c0,23.31 -19.07,42.36 -42.41,42.36l-593.39 0c-23.34,0 -42.39,-19.05 -42.39,-42.36l0 -0.02c0,-23.32 19.05,-42.39 42.39,-42.39zm0 190.76l593.39 0c23.34,0 42.41,19.05 42.41,42.38l0 0.02c0,23.3 -19.07,42.37 -42.41,42.37l-593.39 0c-23.34,0 -42.39,-19.07 -42.39,-42.37l0 -0.02c0,-23.33 19.05,-42.38 42.39,-42.38zm0 -381.49l593.39 0c23.34,0 42.41,19.06 42.41,42.38l0 0.02c0,23.31 -19.07,42.37 -42.41,42.37l-593.39 0c-23.34,0 -42.39,-19.06 -42.39,-42.37l0 -0.02c0,-23.32 19.05,-42.38 42.39,-42.38z"/>
  <path class="fil0 str2" d="M9969.6 15366.49l0.01 0c11.66,0 21.19,9.52 21.19,21.17l0 0.01c0,11.68 -9.53,21.2 -21.19,21.2l-0.01 0c-11.66,0 -21.19,-9.52 -21.19,-21.2l0 -0.01c0,-11.65 9.53,-21.17 21.19,-21.17z"/>
  <path class="fil1 str2" d="M9969.6 15349.95c10.38,0 19.86,4.25 26.67,11.06 6.81,6.82 11.06,16.26 11.06,26.65 0,10.36 -4.25,19.79 -11.06,26.62 -6.81,6.88 -16.26,11.13 -26.66,11.13 -10.42,0 -19.86,-4.25 -26.67,-11.06 -6.81,-6.9 -11.06,-16.33 -11.06,-26.68 0,-10.4 4.25,-19.84 11.06,-26.66 6.81,-6.81 16.29,-11.06 26.66,-11.06zm0.01 33.08c-1.27,0 -2.46,0.54 -3.29,1.37 -0.83,0.83 -1.37,2 -1.37,3.26 0,1.3 0.53,2.49 1.34,3.34 0.86,0.79 2.05,1.34 3.31,1.34 1.27,0 2.46,-0.55 3.29,-1.38 0.84,-0.81 1.37,-2 1.37,-3.29 0,-1.27 -0.55,-2.44 -1.37,-3.27 -0.83,-0.83 -2.02,-1.37 -3.28,-1.37z"/>
  <path class="fil0 str2" d="M10647.8 15366.49l0.01 0c11.66,0 21.19,9.52 21.19,21.17l0 0.01c0,11.68 -9.53,21.2 -21.19,21.2l-0.01 0c-11.66,0 -21.19,-9.52 -21.19,-21.2l0 -0.01c0,-11.65 9.53,-21.17 21.19,-21.17z"/>
  <path class="fil1 str2" d="M10647.8 15349.95c10.38,0 19.86,4.25 26.67,11.06 6.81,6.82 11.06,16.26 11.06,26.65 0,10.36 -4.25,19.79 -11.06,26.62 -6.81,6.88 -16.26,11.13 -26.66,11.13 -10.42,0 -19.86,-4.25 -26.67,-11.06 -6.82,-6.9 -11.07,-16.33 -11.07,-26.68 0,-10.4 4.25,-19.84 11.07,-26.66 6.81,-6.81 16.29,-11.06 26.66,-11.06zm0.01 33.08c-1.27,0 -2.46,0.54 -3.29,1.37 -0.83,0.83 -1.37,2 -1.37,3.26 0,1.3 0.53,2.49 1.34,3.34 0.86,0.79 2.05,1.34 3.31,1.34 1.27,0 2.46,-0.55 3.29,-1.38 0.84,-0.81 1.37,-2 1.37,-3.29 0,-1.27 -0.55,-2.44 -1.37,-3.27 -0.83,-0.83 -2.02,-1.37 -3.28,-1.37z"/>
  <path class="fil0 str2" d="M10308.69 15366.49l0.01 0c11.66,0 21.2,9.52 21.2,21.17l0 0.01c0,11.68 -9.54,21.2 -21.2,21.2l-0.01 0c-11.64,0 -21.17,-9.52 -21.17,-21.2l0 -0.01c0,-11.65 9.53,-21.17 21.17,-21.17z"/>
  <path class="fil1 str2" d="M10308.69 15349.95c10.42,0 19.86,4.25 26.67,11.06 6.83,6.88 11.08,16.33 11.08,26.65 0,10.36 -4.25,19.79 -11.06,26.62 -6.91,6.88 -16.34,11.13 -26.68,11.13 -10.4,0 -19.84,-4.25 -26.65,-11.06 -6.82,-6.9 -11.07,-16.33 -11.07,-26.68 0,-10.4 4.25,-19.84 11.07,-26.66 6.81,-6.81 16.25,-11.06 26.64,-11.06zm0.01 33.08c-1.27,0 -2.44,0.54 -3.27,1.37 -0.83,0.83 -1.37,2 -1.37,3.26 0,1.3 0.53,2.49 1.34,3.34 0.86,0.79 2.03,1.34 3.29,1.34 1.32,0 2.49,-0.53 3.34,-1.34 0.81,-0.85 1.34,-2.04 1.34,-3.33 0,-1.3 -0.53,-2.48 -1.33,-3.27 -0.89,-0.83 -2.08,-1.37 -3.34,-1.37z"/>
  <path class="fil0 str2" d="M10478.24 15366.49l0.02 0c11.67,0 21.2,9.52 21.2,21.17l0 0.01c0,11.68 -9.53,21.2 -21.2,21.2l-0.02 0c-11.64,0 -21.17,-9.52 -21.17,-21.2l0 -0.01c0,-11.65 9.53,-21.17 21.17,-21.17z"/>
  <path class="fil1 str2" d="M10478.24 15349.95c10.35,0 19.78,4.25 26.63,11.06 6.88,6.82 11.13,16.26 11.13,26.65 0,10.4 -4.25,19.87 -11.07,26.69 -6.91,6.81 -16.34,11.06 -26.67,11.06 -10.4,0 -19.85,-4.25 -26.66,-11.06 -6.81,-6.9 -11.06,-16.33 -11.06,-26.68 0,-10.4 4.25,-19.84 11.06,-26.66 6.81,-6.81 16.26,-11.06 26.64,-11.06zm0.02 33.08c-1.28,0 -2.45,0.54 -3.28,1.37 -0.82,0.83 -1.37,2 -1.37,3.26 0,1.3 0.53,2.49 1.34,3.34 0.86,0.79 2.03,1.34 3.29,1.34 1.32,0 2.5,-0.53 3.34,-1.34 0.8,-0.86 1.34,-2.05 1.34,-3.33 0,-1.27 -0.54,-2.44 -1.37,-3.27 -0.81,-0.85 -1.99,-1.37 -3.29,-1.37z"/>
  <path class="fil0 str2" d="M10139.15 15366.49l0.02 0c11.66,0 21.2,9.52 21.2,21.17l0 0.01c0,11.68 -9.54,21.2 -21.2,21.2l-0.02 0c-11.64,0 -21.18,-9.52 -21.18,-21.2l0 -0.01c0,-11.65 9.54,-21.17 21.18,-21.17z"/>
  <path class="fil1 str2" d="M10139.15 15349.95c10.42,0 19.86,4.25 26.67,11.06 6.83,6.88 11.08,16.33 11.08,26.65 0,10.36 -4.25,19.79 -11.06,26.62 -6.91,6.88 -16.34,11.13 -26.67,11.13 -10.34,0 -19.8,-4.27 -26.64,-11.11 -6.85,-6.78 -11.1,-16.23 -11.1,-26.63 0,-10.4 4.25,-19.84 11.06,-26.66 6.9,-6.81 16.32,-11.06 26.66,-11.06zm0.02 33.08c-1.29,0 -2.48,0.52 -3.33,1.34 -0.79,0.86 -1.34,2.03 -1.34,3.29 0,1.27 0.55,2.46 1.38,3.29 0.79,0.86 1.98,1.39 3.27,1.39 1.32,0 2.5,-0.53 3.34,-1.34 0.81,-0.85 1.34,-2.04 1.34,-3.33 0,-1.3 -0.53,-2.48 -1.32,-3.27 -0.9,-0.83 -2.09,-1.37 -3.34,-1.37z"/>
  <path class="fil0 str2" d="M10817.35 15366.49l0.02 0c11.65,0 21.2,9.52 21.2,21.17l0 0.01c0,11.68 -9.55,21.2 -21.2,21.2l-0.02 0c-11.64,0 -21.18,-9.52 -21.18,-21.2l0 -0.01c0,-11.65 9.54,-21.17 21.18,-21.17z"/>
  <path class="fil1 str2" d="M10817.35 15349.95c10.42,0 19.86,4.25 26.67,11.06 6.83,6.88 11.08,16.33 11.08,26.65 0,10.36 -4.25,19.79 -11.06,26.62 -6.9,6.88 -16.32,11.13 -26.67,11.13 -10.32,0 -19.8,-4.25 -26.64,-11.11 -6.85,-6.78 -11.1,-16.23 -11.1,-26.63 0,-10.4 4.25,-19.84 11.06,-26.66 6.91,-6.81 16.34,-11.06 26.66,-11.06zm0.02 33.08c-1.31,0 -2.48,0.52 -3.33,1.34 -0.79,0.86 -1.34,2.03 -1.34,3.29 0,1.27 0.55,2.46 1.38,3.29 0.79,0.86 1.96,1.39 3.27,1.39 1.31,0 2.5,-0.53 3.34,-1.34 0.81,-0.85 1.34,-2.04 1.34,-3.33 0,-1.3 -0.53,-2.48 -1.32,-3.27 -0.9,-0.83 -2.09,-1.37 -3.34,-1.37z"/>
 </g>
</svg>
