<?xml version="1.0" encoding="UTF-8"?>
<!DOCTYPE svg PUBLIC "-//W3C//DTD SVG 1.1//EN" "http://www.w3.org/Graphics/SVG/1.1/DTD/svg11.dtd">
<!-- Creator: CorelDRAW 2019 (64 Bit Sem fins comerciais) -->
<svg xmlns="http://www.w3.org/2000/svg" xml:space="preserve" width="210mm" height="297mm" version="1.1" style="shape-rendering:geometricPrecision; text-rendering:geometricPrecision; image-rendering:optimizeQuality; fill-rule:evenodd; clip-rule:evenodd"
viewBox="0 0 21000 29700"
 xmlns:xlink="http://www.w3.org/1999/xlink"
 xmlns:xodm="http://www.corel.com/coreldraw/odm/2003">
 <defs>
  <style type="text/css">
   <![CDATA[
    .str0 {stroke:#FEFEFE;stroke-width:20;stroke-miterlimit:22.9256}
    .str2 {stroke:#0C344C;stroke-width:20;stroke-miterlimit:22.9256}
    .str1 {stroke:#FEFEFE;stroke-width:20;stroke-miterlimit:22.9256}
    .fil1 {fill:none}
    .fil0 {fill:#FEFEFE}
    .fil3 {fill:#0C344C}
    .fil2 {fill:#FEFEFE}
   ]]>
  </style>
 </defs>
 <g id="Camada_x0020_1">
  <metadata id="CorelCorpID_0Corel-Layer"/>
  <g id="_2063610333856">
   <g>
    <path class="fil0" d="M10121.21 14156.35l-238.68 497.88 238.68 -497.88zm740.5 0l239.16 498.87 -239.16 -498.87zm3.04 0l-238.69 497.88 238.69 -497.88zm-243.16 507.21l-0.17 0.35 0.17 -0.35zm-503.42 -507.21l239.17 498.89 -239.17 -498.89zm350.97 -26.07l32.86 0 0 1.06 371.93 0 0 22.39 -371.93 0 0 931.38 -32.86 0 0 -931.38 -359.43 0 0 -22.39 359.43 0 0 -1.06zm397.88 523.95l233.85 0.99 0.12 0 11.91 0.05c-0.91,85.54 -110.72,154.58 -245.88,154.58 -130.84,0 -237.8,-64.68 -245.43,-146.28l0 -0.01c-0.29,-3.09 -0.45,-6.2 -0.45,-9.33 0,0 0,0 0,0l4.92 0 0.14 0 240.82 0zm-748.29 0l238.61 1.01 0.12 0 7.14 0.03c-0.9,85.54 -110.72,154.58 -245.87,154.58 -135.79,0 -245.88,-69.67 -245.88,-155.62 0,0 0,0 0,0l9.68 0 0.13 0 236.07 0z"/>
    <path id="1" class="fil1 str0" d="M10121.21 14156.35l-238.68 497.88m979.18 -497.88l239.16 498.87m-236.12 -498.87l-238.69 497.88m-4.47 9.33l-0.17 0.35m-503.25 -507.56l239.17 498.89m111.8 -524.96l32.86 0 0 1.06 371.93 0 0 22.39 -371.93 0 0 931.38 -32.86 0 0 -931.38 -359.43 0 0 -22.39 359.43 0 0 -1.06zm397.88 523.95l233.85 0.99 0.12 0 11.91 0.05c-0.91,85.54 -110.72,154.58 -245.88,154.58 -130.84,0 -237.8,-64.68 -245.43,-146.28l0 -0.01c-0.29,-3.09 -0.45,-6.2 -0.45,-9.33 0,0 0,0 0,0l4.92 0 0.14 0 240.82 0zm-748.29 0l238.61 1.01 0.12 0 7.14 0.03c-0.9,85.54 -110.72,154.58 -245.87,154.58 -135.79,0 -245.88,-69.67 -245.88,-155.62 0,0 0,0 0,0l9.68 0 0.13 0 236.07 0z"/>
   </g>
   <g id="_2741851270016">
    <path class="fil2 str1" d="M10556.55 15229.85l97.76 -136.7 309.73 -3.16 104.29 115.36 -4.74 34.77 -461.43 -1.59c-25.37,18.97 -33,37.93 -0.95,56.9l400.28 4.74 -2.69 -56.89 36.35 -1.58 21.02 61.63 1.1 25.28 25.29 0 1.57 23.7 -22.12 6.33 3.16 60.04 23.71 9.49 1.58 40.13 -74.27 0 4.74 61 31.12 2.06 2.89 39.43c-159.33,0 -318.66,0 -478,0 -65.19,-17.94 -50.47,-119.16 5.66,-123.46 -32.67,-32.61 -39.43,-71.24 2.27,-107.61 -40.56,-28.44 -45.28,-72.4 -28.32,-109.87z"/>
    <path class="fil3 str2" d="M10622.25 15365.24l402.11 -0.6 2.27 58.9 -404.38 -1.14c-33.98,-21.31 -20.38,-52.83 0,-57.16z"/>
    <path class="fil3 str2" d="M10591.67 15470.58l402.11 -0.6 2.27 58.9 -404.38 -1.14c-33.98,-21.32 -20.39,-52.83 0,-57.16z"/>
    <path class="fil3 str2" d="M10603 15244.03l402.11 -0.6 2.26 58.9 -404.37 -1.13c-33.98,-21.32 -20.39,-52.84 0,-57.17z"/>
   </g>
   <g id="_2741851270016_0">
    <path class="fil2 str1" d="M9933.8 15229.85l97.76 -136.7 309.73 -3.16 104.29 115.36 -4.74 34.77 -461.43 -1.59c-25.37,18.97 -33,37.93 -0.95,56.9l400.28 4.74 -2.69 -56.89 36.35 -1.58 21.02 61.63 1.1 25.28 25.29 0 1.57 23.7 -22.12 6.33 3.16 60.04 23.71 9.49 1.58 40.13 -74.27 0 4.73 61 31.13 2.06 2.89 39.43c-159.33,0 -318.66,0 -478,0 -65.19,-17.94 -50.47,-119.16 5.66,-123.46 -32.68,-32.61 -39.43,-71.24 2.27,-107.61 -40.56,-28.44 -45.28,-72.4 -28.32,-109.87z"/>
    <path class="fil3 str2" d="M9999.5 15365.24l402.11 -0.6 2.27 58.9 -404.38 -1.14c-33.98,-21.31 -20.39,-52.83 0,-57.16z"/>
    <path class="fil3 str2" d="M9968.92 15470.58l402.11 -0.6 2.26 58.9 -404.37 -1.14c-33.98,-21.32 -20.39,-52.83 0,-57.16z"/>
    <path class="fil3 str2" d="M9980.25 15244.03l402.11 -0.6 2.26 58.9 -404.37 -1.13c-33.98,-21.32 -20.39,-52.84 0,-57.17z"/>
   </g>
   <g id="_2741851270016_1">
    <path class="fil2 str1" d="M10228.12 15229.85l97.75 -136.7 309.73 -3.16 104.29 115.36 -4.73 34.77 -461.44 -1.59c-25.37,18.97 -32.99,37.93 -0.95,56.9l400.28 4.74 -2.69 -56.89 36.35 -1.58 21.02 61.63 1.1 25.28 25.29 0 1.58 23.7 -22.12 6.33 3.15 60.04 23.71 9.49 1.58 40.13 -74.27 0 4.74 61 31.13 2.06 2.89 39.43c-159.34,0 -318.67,0 -478,0 -65.2,-17.94 -50.47,-119.16 5.66,-123.46 -32.68,-32.61 -39.44,-71.24 2.26,-107.61 -40.56,-28.44 -45.28,-72.4 -28.31,-109.87z"/>
    <path class="fil3 str2" d="M10293.82 15365.24l402.11 -0.6 2.26 58.9 -404.37 -1.14c-33.99,-21.31 -20.39,-52.83 0,-57.16z"/>
    <path class="fil3 str2" d="M10263.23 15470.58l402.11 -0.6 2.27 58.9 -404.38 -1.14c-33.98,-21.32 -20.38,-52.83 0,-57.16z"/>
    <path class="fil3 str2" d="M10274.56 15244.03l402.11 -0.6 2.27 58.9 -404.38 -1.13c-33.98,-21.32 -20.39,-52.84 0,-57.17z"/>
   </g>
  </g>
 </g>
</svg>
