<?xml version="1.0" encoding="UTF-8"?>
<!DOCTYPE svg PUBLIC "-//W3C//DTD SVG 1.1//EN" "http://www.w3.org/Graphics/SVG/1.1/DTD/svg11.dtd">
<!-- Creator: CorelDRAW 2019 (64 Bit Sem fins comerciais) -->
<svg xmlns="http://www.w3.org/2000/svg" xml:space="preserve" width="210mm" height="297mm" version="1.1" style="shape-rendering:geometricPrecision; text-rendering:geometricPrecision; image-rendering:optimizeQuality; fill-rule:evenodd; clip-rule:evenodd"
viewBox="0 0 21000 29700"
 xmlns:xlink="http://www.w3.org/1999/xlink"
 xmlns:xodm="http://www.corel.com/coreldraw/odm/2003"
 data-name="Layer 1">
 <defs>
  <style type="text/css">
   <![CDATA[
    .str1 {stroke:#FEFEFE;stroke-width:20;stroke-miterlimit:22.9256}
    .str2 {stroke:#373435;stroke-width:20;stroke-miterlimit:22.9256}
    .str0 {stroke:#0C344C;stroke-width:20;stroke-miterlimit:22.9256}
    .str3 {stroke:#FEFEFE;stroke-width:19.37;stroke-miterlimit:10}
    .fil1 {fill:#0C344C}
    .fil0 {fill:#FEFEFE;fill-rule:nonzero}
    .fil2 {fill:#0C344C;fill-rule:nonzero}
   ]]>
  </style>
 </defs>
 <g id="Camada_x0020_1">
  <metadata id="CorelCorpID_0Corel-Layer"/>
  <g id="_2063289046608">
   <path class="fil0 str0" d="M9960.3 14298.39c-11.38,0 -20.63,9.25 -20.63,20.63l0 1063.01c0,11.39 9.25,20.64 20.63,20.64l1030.4 0c11.35,0 20.6,-9.25 20.6,-20.64l0 -1063.01c0,-11.38 -9.25,-20.63 -20.6,-20.63l-1030.4 0zm1030.4 1194.38l-1030.4 0c-61.06,0 -110.73,-49.68 -110.73,-110.74l0 -1063.01c0,-61.06 49.67,-110.74 110.73,-110.74l1030.4 0c61.02,0 110.7,49.68 110.7,110.74l0 1063.01c0,61.06 -49.68,110.74 -110.7,110.74z"/>
   <path class="fil0 str1" d="M9914.13 14272.32l0 306.52 215.08 0 0 -99.11c0,-46.7 38.02,-84.72 84.72,-84.72l0.96 0c46.74,0 84.76,38.02 84.76,84.72l0 99.11 352.06 0 0 -99.11c0,-46.7 38.02,-84.72 84.72,-84.72 46.95,0 84.97,38.02 84.97,84.72l0 99.11 215.88 0 0 -306.52 -1123.15 0z"/>
   <path class="fil0" d="M10406.38 15043.21l0 121.98 131.12 0 0 -124.32 -131.24 0c0.06,0.77 0.12,1.56 0.12,2.34z"/>
   <path class="fil0" d="M10220.58 15040.87c0.05,0.77 0.12,1.56 0.12,2.34l0 121.98 126.63 0 0 -121.98c0,-0.78 0.07,-1.57 0.12,-2.34l-126.87 0z"/>
   <path class="fil0" d="M10220.7 15224.23l0 122c0,0.79 -0.07,1.55 -0.12,2.34l126.87 0c-0.05,-0.79 -0.12,-1.55 -0.12,-2.34l0 -122 -126.63 0z"/>
   <path class="fil0" d="M10406.38 15224.23l0 122c0,0.79 -0.06,1.55 -0.12,2.34l131.24 0 0 -124.34 -131.12 0z"/>
   <path class="fil0" d="M10161.66 15165.19l0 -121.98c0,-0.78 0.05,-1.57 0.11,-2.34l-131.22 0 0 124.32 131.11 0z"/>
   <path class="fil0" d="M10161.66 15346.23l0 -122 -131.11 0 0 124.34 131.22 0c-0.06,-0.79 -0.11,-1.55 -0.11,-2.34z"/>
   <path class="fil0" d="M10782.36 15040.87c0.05,0.77 0.12,1.56 0.12,2.34l0 121.98 126.63 0 0 -121.98c0,-0.78 0.07,-1.57 0.12,-2.34l-126.87 0z"/>
   <path class="fil0" d="M10782.48 15224.23l0 122c0,0.79 -0.07,1.55 -0.12,2.34l126.87 0c-0.05,-0.79 -0.12,-1.55 -0.12,-2.34l0 -122 -126.63 0z"/>
   <path class="fil0" d="M10723.44 15165.19l0 -121.98c0,-0.78 0.05,-1.57 0.11,-2.34l-131.22 0 0 124.32 131.11 0z"/>
   <path class="fil0" d="M10723.44 15346.23l0 -122 -131.11 0 0 124.34 131.22 0c-0.06,-0.79 -0.11,-1.55 -0.11,-2.34z"/>
   <path class="fil0" d="M10406.38 14672.69l0 121.98 131.12 0 0 -124.32 -131.24 0c0.06,0.77 0.12,1.55 0.12,2.34z"/>
   <path class="fil0" d="M10220.58 14670.35c0.05,0.77 0.12,1.55 0.12,2.34l0 121.98 126.63 0 0 -121.98c0,-0.79 0.07,-1.57 0.12,-2.34l-126.87 0z"/>
   <path class="fil0" d="M10220.7 14853.71l0 122c0,0.78 -0.07,1.55 -0.12,2.34l126.87 0c-0.05,-0.79 -0.12,-1.56 -0.12,-2.34l0 -122 -126.63 0z"/>
   <path class="fil0" d="M10406.38 14853.71l0 122c0,0.78 -0.06,1.55 -0.12,2.34l131.24 0 0 -124.34 -131.12 0z"/>
   <path class="fil0" d="M10161.66 14794.67l0 -121.98c0,-0.79 0.05,-1.57 0.11,-2.34l-131.22 0 0 124.32 131.11 0z"/>
   <path class="fil0" d="M10161.66 14975.71l0 -122 -131.11 0 0 124.34 131.22 0c-0.06,-0.79 -0.11,-1.56 -0.11,-2.34z"/>
   <path class="fil0" d="M10782.36 14670.35c0.05,0.77 0.12,1.55 0.12,2.34l0 121.98 126.63 0 0 -121.98c0,-0.79 0.07,-1.57 0.12,-2.34l-126.87 0z"/>
   <path class="fil0" d="M10782.48 14853.71l0 122c0,0.78 -0.07,1.55 -0.12,2.34l126.87 0c-0.05,-0.79 -0.12,-1.56 -0.12,-2.34l0 -122 -126.63 0z"/>
   <path class="fil0" d="M10723.44 14794.67l0 -121.98c0,-0.79 0.05,-1.57 0.11,-2.34l-131.22 0 0 124.32 131.11 0z"/>
   <path class="fil0" d="M10723.44 14975.71l0 -122 -131.11 0 0 124.34 131.22 0c-0.06,-0.79 -0.11,-1.56 -0.11,-2.34z"/>
   <circle class="fil1 str2" cx="10902.03" cy="15143.18" r="266.95"/>
   <g>
    <path class="fil2 str3" d="M10883.04 15379.08c-0.11,-0.8 -0.18,-1.63 -0.18,-2.49l0 -33.58c0,-10.59 8.59,-19.2 19.17,-19.2 10.6,0 19.18,8.61 19.18,19.2l0 33.58c0,0.86 -0.08,1.69 -0.18,2.49 115.34,-9.18 207.63,-101.44 216.9,-216.75 -0.87,0.11 -1.74,0.2 -2.63,0.2l-33.61 0c-10.59,0 -19.18,-8.59 -19.18,-19.2 0,-10.58 8.59,-19.17 19.18,-19.17l33.61 0c0.9,0 1.78,0.09 2.65,0.2 -9.12,-115.48 -101.51,-207.88 -216.98,-217.07 0.15,0.92 0.24,1.84 0.24,2.78l0 33.61c0,10.59 -8.58,19.17 -19.18,19.17 -10.58,0 -19.17,-8.58 -19.17,-19.17l0 -33.61c0,-0.94 0.09,-1.86 0.23,-2.78 -115.47,9.19 -207.85,101.59 -216.98,217.07 0.89,-0.11 1.75,-0.2 2.67,-0.2l33.61 0c10.58,0 19.16,8.59 19.16,19.17 0,10.61 -8.58,19.2 -19.16,19.2l-33.61 0c-0.92,0 -1.78,-0.09 -2.64,-0.2 9.27,115.31 101.56,207.57 216.9,216.75zm-193.55 -448.44c56.77,-56.76 132.25,-88.03 212.54,-88.03 80.29,0 155.77,31.27 212.54,88.03 56.77,56.78 88.04,132.25 88.04,212.55 0,80.3 -31.27,155.76 -88.04,212.55 -56.77,56.75 -132.25,88.02 -212.54,88.02 -80.29,0 -155.77,-31.27 -212.54,-88.02 -56.76,-56.79 -88.03,-132.25 -88.03,-212.55 0,-80.3 31.27,-155.77 88.03,-212.55z"/>
    <path class="fil2 str3" d="M10845.53 15063.15l44.52 42.25c3.79,-1.2 7.81,-1.86 11.98,-1.86 3.31,0 6.52,0.43 9.59,1.17l91.26 -98.12c7.22,-7.78 19.35,-8.21 27.1,-1 7.75,7.21 8.19,19.34 0.98,27.09l-91.26 98.15c1.27,3.89 1.97,8.04 1.97,12.36 0,21.88 -17.74,39.65 -39.64,39.65 -21.88,0 -39.64,-17.77 -39.64,-39.65 0,-3.43 0.45,-6.78 1.27,-9.99l-44.53 -42.22c-7.68,-7.29 -7.99,-19.42 -0.7,-27.12 7.29,-7.67 19.42,-8.01 27.1,-0.71z"/>
   </g>
  </g>
 </g>
</svg>
